<svg width="24" height="24" fill="none" xmlns="http://www.w3.org/2000/svg"><path d="M24 5.309c-.903.393-1.858.655-2.835.777a4.893 4.893 0 002.165-2.72 9.833 9.833 0 01-3.12 1.191 4.92 4.92 0 00-8.512 3.365c0 .39.034.765.114 1.122A13.926 13.926 0 011.671 3.897a4.928 4.928 0 001.512 6.576A4.86 4.86 0 01.96 9.867v.054a4.942 4.942 0 003.942 4.835c-.42.11-.855.165-1.29.162a4.347 4.347 0 01-.932-.084 4.966 4.966 0 004.598 3.427 9.884 9.884 0 01-6.1 2.099c-.404 0-.791-.018-1.178-.068A13.85 13.85 0 007.548 22.5c9.054 0 14.004-7.5 14.004-14.001 0-.217-.008-.427-.018-.636A9.817 9.817 0 0024 5.31z" fill="#FAFBFF"/></svg>